# This file uses centimeters as units for non-parametric coordinates.

mtllib PadButton.mtl
g default
v 4.966364 -0.024605 -10.960165
v -5.148541 -0.008269 -10.947943
v -11.946956 -0.015648 -3.104881
v -11.924054 -0.018626 3.152741
v -5.100595 0.025950 10.964267
v 5.001751 -0.024662 10.947934
v 11.719835 -0.035512 3.108959
v 11.709733 -0.035495 -3.142931
v 4.959974 0.877912 -10.968378
v -5.141541 0.810941 -10.947937
v -11.791537 0.760751 -3.113045
v -11.768592 0.757775 3.144691
v -5.118885 0.801120 10.964268
v 4.997365 0.870601 10.947933
v 11.725878 0.918941 3.108958
v 11.702954 0.921918 -3.151153
v -0.080970 0.064206 0.004076
v 0.074563 0.840607 -0.004076
vt 0.771360 0.329589
vt 0.509004 0.220918
vt 0.246649 0.329589
vt 0.137978 0.591944
vt 0.246649 0.854300
vt 0.509004 0.962971
vt 0.771360 0.854300
vt 0.880031 0.591944
vt 0.039658 0.017185
vt 0.155540 0.017185
vt 0.271422 0.017185
vt 0.387304 0.017185
vt 0.503186 0.017185
vt 0.619068 0.017185
vt 0.734951 0.017185
vt 0.850833 0.017185
vt 0.966715 0.017185
vt 0.039658 0.196757
vt 0.155540 0.196757
vt 0.271422 0.196757
vt 0.387304 0.196757
vt 0.503186 0.196757
vt 0.619068 0.196757
vt 0.734951 0.196757
vt 0.850833 0.196757
vt 0.966715 0.196757
vt 0.771617 0.329704
vt 0.509261 0.221033
vt 0.246906 0.329704
vt 0.138235 0.592059
vt 0.246906 0.854415
vt 0.509261 0.963086
vt 0.771617 0.854415
vt 0.880288 0.592059
vt 0.509004 0.577103
vt 0.509261 0.577218
vn -0.001604 -0.004766 -0.999987
vn -0.001604 -0.004766 -0.999987
vn -0.001604 -0.004766 -0.999987
vn -0.001604 -0.004766 -0.999987
vn -0.757080 0.073744 -0.649146
vn -0.757081 0.073744 -0.649146
vn -0.757081 0.073744 -0.649146
vn -0.757081 0.073744 -0.649146
vn -0.980528 0.196346 0.003685
vn -0.980528 0.196347 0.003685
vn -0.980528 0.196347 0.003685
vn -0.980528 0.196346 0.003685
vn -0.755783 0.070196 0.651049
vn -0.755783 0.070196 0.651049
vn -0.755783 0.070196 0.651049
vn -0.755783 0.070196 0.651049
vn 0.001616 0.000022 0.999999
vn 0.001616 0.000022 0.999999
vn 0.001616 0.000022 0.999999
vn 0.001616 0.000022 0.999999
vn 0.759057 -0.000680 0.651023
vn 0.759057 -0.000680 0.651023
vn 0.759057 -0.000680 0.651023
vn 0.759057 -0.000680 0.651023
vn 0.999997 0.000373 -0.002639
vn 0.999996 0.000373 -0.002639
vn 0.999997 0.000373 -0.002639
vn 0.999997 0.000373 -0.002639
vn 0.757210 -0.000410 -0.653172
vn 0.757210 -0.000410 -0.653172
vn 0.757210 -0.000410 -0.653172
vn 0.757210 -0.000410 -0.653172
vn 0.002108 -0.999982 0.005642
vn -0.004429 -0.999972 0.006061
vn -0.001286 -0.999999 0.000753
vn 0.006195 -0.999979 0.002042
vn 0.006887 -0.999976 -0.000403
vn 0.001053 -0.999995 -0.003008
vn -0.006122 -0.999967 -0.005277
vn -0.007737 -0.999966 -0.002707
vn -0.007728 -0.999966 0.002727
vn -0.006766 0.999977 0.000387
vn -0.006756 0.999977 0.000509
vn -0.006836 0.999977 0.000403
vn -0.006871 0.999976 0.000539
vn -0.006887 0.999976 0.000404
vn -0.006887 0.999976 0.000339
vn -0.006838 0.999977 0.000335
vn -0.006830 0.999977 0.000399
vn -0.006884 0.999976 0.000401
s off
g pCylinder1
usemtl initialShadingGroup
f 1/9/1 2/10/2 10/19/3 9/18/4
f 2/10/5 3/11/6 11/20/7 10/19/8
f 3/11/9 4/12/10 12/21/11 11/20/12
f 4/12/13 5/13/14 13/22/15 12/21/16
f 5/13/17 6/14/18 14/23/19 13/22/20
f 6/14/21 7/15/22 15/24/23 14/23/24
f 7/15/25 8/16/26 16/25/27 15/24/28
f 8/16/29 1/17/30 9/26/31 16/25/32
s 1
f 2/2/33 1/1/34 17/35/35
f 3/3/36 2/2/33 17/35/35
f 4/4/37 3/3/36 17/35/35
f 5/5/38 4/4/37 17/35/35
f 6/6/39 5/5/38 17/35/35
f 7/7/40 6/6/39 17/35/35
f 8/8/41 7/7/40 17/35/35
f 1/1/34 8/8/41 17/35/35
s 2
f 9/33/42 10/32/43 18/36/44
f 10/32/43 11/31/45 18/36/44
f 11/31/45 12/30/46 18/36/44
f 12/30/46 13/29/47 18/36/44
f 13/29/47 14/28/48 18/36/44
f 14/28/48 15/27/49 18/36/44
f 15/27/49 16/34/50 18/36/44
f 16/34/50 9/33/42 18/36/44
