# This file uses centimeters as units for non-parametric coordinates.

mtllib Tower001.mtl
g default
v -313.415991 -490.840574 313.415953
v 313.415991 -490.840574 313.415953
v -313.415991 926.216531 313.415953
v 313.415991 926.216531 313.415953
v -313.415991 926.216531 -313.415953
v 313.415991 926.216531 -313.415953
v -313.415991 -490.840574 -313.415953
v 313.415991 -490.840574 -313.415953
v -313.415991 -490.840574 -156.707977
v 313.415991 -490.840574 -156.707977
v 313.415991 926.216531 -156.707977
v -313.415991 926.216531 -156.707977
v -313.415991 926.216531 156.707977
v 313.415991 926.216531 156.707977
v 313.415991 -490.840574 156.707977
v -313.415991 -490.840574 156.707977
v 156.707995 -490.840574 156.707977
v 156.707995 -490.840574 313.415953
v 156.707995 926.216531 313.415953
v 213.997541 926.216531 213.997485
v 213.997541 926.216531 -213.997485
v 156.707995 926.216531 -313.415953
v 156.707995 -490.840574 -313.415953
v 156.707995 -490.840574 -156.707977
v -156.707995 -490.840574 313.415953
v -156.707995 -490.840574 156.707977
v -156.707995 -490.840574 -156.707977
v -156.707995 -490.840574 -313.415953
v -156.707995 926.216531 -313.415953
v -213.997541 926.216531 -213.997485
v -213.997541 926.216531 213.997485
v -156.707995 926.216531 313.415953
v 213.997541 1844.822474 213.997485
v 213.997541 1844.822474 -213.997485
v -213.997541 1844.822474 -213.997485
v -213.997541 1844.822474 213.997485
v 125.366576 -490.840574 156.707977
v 125.366576 -490.840574 313.415953
v 125.366576 926.216531 313.415953
v 171.197914 926.216531 213.997485
v 171.197914 1844.822474 213.997485
v 171.197914 1844.822474 -213.997485
v 171.197914 926.216531 -213.997485
v 125.366576 926.216531 -313.415953
v 125.366576 -490.840574 -313.415953
v 125.366576 -490.840574 -156.707977
v -128.500508 -490.840574 313.415953
v -128.500508 -490.840574 156.707977
v -128.500508 -490.840574 -156.707977
v -128.500508 -490.840574 -313.415953
v -128.500508 926.216531 -313.415953
v -175.478115 926.216531 -213.997485
v -175.478115 1844.822474 -213.997485
v -175.478115 1844.822474 213.997485
v -175.478115 926.216531 213.997485
v -128.500508 926.216531 313.415953
v -313.415991 -490.840574 125.366379
v -156.707995 -490.840574 125.366379
v -128.500508 -490.840574 125.366379
v 125.366576 -490.840574 125.366370
v 156.707995 -490.840574 125.366379
v 313.415991 -490.840574 125.366370
v 313.415991 926.216531 125.366370
v 213.997541 926.216531 171.197970
v 213.997541 1844.822474 171.197970
v 171.197914 1844.822474 171.197970
v -175.478115 1844.822474 171.197970
v -213.997541 1844.822474 171.197970
v -213.997541 926.216531 171.197970
v -313.415991 926.216531 125.366379
v -313.415991 -490.840574 -128.500546
v -156.707995 -490.840574 -128.500546
v -128.500508 -490.840574 -128.500518
v 125.366576 -490.840574 -128.500546
v 156.707995 -490.840574 -128.500546
v 313.415991 -490.840574 -128.500546
v 313.415991 926.216531 -128.500546
v 213.997541 926.216531 -175.477947
v 213.997541 1844.822474 -175.477947
v 171.197914 1844.822474 -175.477947
v -175.478115 1844.822474 -175.477947
v -213.997541 1844.822474 -175.477947
v -213.997541 926.216531 -175.477947
v -313.415991 926.216531 -128.500546
v 84.839992 2351.699519 84.840067
v -89.120194 2351.699519 84.840067
v 84.839992 2351.699519 -89.120045
v -89.120194 2351.699519 -89.120045
vt 0.709613 0.538300
vt 0.709613 0.523042
vt 0.942302 0.523042
vt 0.942302 0.538300
vt 0.709613 0.399842
vt 0.942302 0.399842
vt 0.709613 0.614386
vt 0.942302 0.614386
vt 0.709613 0.386130
vt 0.942302 0.386130
vt 0.709613 0.310045
vt 0.942302 0.310045
vt 0.703840 0.401337
vt 0.471099 0.401337
vt 0.471099 0.386130
vt 0.703840 0.386130
vt 0.703840 0.524563
vt 0.471099 0.524563
vt 0.471099 0.310070
vt 0.703840 0.310070
vt 0.703840 0.538275
vt 0.471099 0.538275
vt 0.471099 0.614308
vt 0.703840 0.614308
vt 0.215471 0.825785
vt 0.215471 0.805063
vt 0.366405 0.805063
vt 0.366405 0.825785
vt 0.215471 0.636809
vt 0.366405 0.636809
vt 0.215471 0.618149
vt 0.366405 0.618149
vt 0.682911 0.638897
vt 0.532029 0.638897
vt 0.532029 0.618123
vt 0.682911 0.618123
vt 0.682911 0.807150
vt 0.532029 0.807150
vt 0.532029 0.825862
vt 0.682911 0.825862
vt 0.859000 0.958522
vt 0.859000 0.790268
vt 0.942302 0.832126
vt 0.942302 0.916562
vt 0.680849 0.998008
vt 0.680849 0.829754
vt 0.764100 0.871663
vt 0.764100 0.956099
vt 0.001881 0.638923
vt 0.022603 0.638923
vt 0.022603 0.807176
vt 0.001881 0.807176
vt 0.001881 0.618097
vt 0.022603 0.618097
vt 0.022603 0.825940
vt 0.001881 0.825940
vt 0.190857 0.618097
vt 0.190857 0.638923
vt 0.190857 0.807176
vt 0.190857 0.825940
vt 0.209517 0.618097
vt 0.209517 0.638923
vt 0.209517 0.807176
vt 0.209517 0.825940
vt 0.570226 0.230222
vt 0.570226 0.215015
vt 0.693427 0.215015
vt 0.693427 0.230222
vt 0.556540 0.230222
vt 0.556540 0.215015
vt 0.570226 0.091789
vt 0.693427 0.091789
vt 0.708685 0.215015
vt 0.708685 0.230222
vt 0.570226 0.306282
vt 0.693427 0.306282
vt 0.480481 0.230222
vt 0.480481 0.215015
vt 0.556540 0.091789
vt 0.556540 0.306282
vt 0.570226 0.078077
vt 0.693427 0.078077
vt 0.708685 0.091789
vt 0.784719 0.215015
vt 0.784719 0.230222
vt 0.708685 0.306282
vt 0.480481 0.091789
vt 0.480481 0.306282
vt 0.556540 0.078077
vt 0.693427 0.002044
vt 0.570226 0.002044
vt 0.708685 0.078077
vt 0.784719 0.091789
vt 0.784719 0.306282
vt 0.480481 0.078077
vt 0.556540 0.002044
vt 0.708685 0.002044
vt 0.784719 0.078077
vt 0.480481 0.002044
vt 0.784719 0.002044
vt 0.250756 0.614386
vt 0.227946 0.566033
vt 0.396225 0.566033
vt 0.373956 0.614386
vt 0.209260 0.566033
vt 0.237070 0.614386
vt 0.416999 0.566033
vt 0.389215 0.614386
vt 0.161010 0.538300
vt 0.161010 0.614386
vt 0.465248 0.538300
vt 0.465248 0.614386
vt 0.161010 0.524589
vt 0.209260 0.547373
vt 0.416999 0.547373
vt 0.465248 0.524589
vt 0.161010 0.401388
vt 0.209260 0.379119
vt 0.416999 0.379119
vt 0.465248 0.401388
vt 0.161010 0.386130
vt 0.209260 0.358397
vt 0.416999 0.358397
vt 0.465248 0.386130
vt 0.161010 0.310045
vt 0.237070 0.310045
vt 0.389215 0.310045
vt 0.465248 0.310045
vt 0.250756 0.310045
vt 0.227946 0.358397
vt 0.396225 0.358397
vt 0.373956 0.310045
vt 0.590562 0.829651
vt 0.674998 0.829651
vt 0.674998 0.914087
vt 0.590562 0.914087
vt 0.001881 0.093310
vt 0.234621 0.093310
vt 0.234621 0.216510
vt 0.001881 0.216510
vt 0.001881 0.078052
vt 0.234621 0.078052
vt 0.234621 0.230222
vt 0.001881 0.230222
vt 0.001881 0.002018
vt 0.234621 0.002018
vt 0.001881 0.306256
vt 0.234621 0.306256
vt 0.241271 0.093336
vt 0.474063 0.093336
vt 0.474063 0.216433
vt 0.241271 0.216433
vt 0.241271 0.078077
vt 0.474063 0.078077
vt 0.474063 0.230248
vt 0.241271 0.230248
vt 0.241271 0.001992
vt 0.474063 0.001992
vt 0.241271 0.306333
vt 0.474063 0.306333
vt 0.373750 0.638923
vt 0.524477 0.638923
vt 0.524477 0.807176
vt 0.373750 0.807176
vt 0.524477 0.618097
vt 0.373750 0.618097
vt 0.524477 0.825940
vt 0.373750 0.825940
vt 0.841113 0.807228
vt 0.690231 0.807228
vt 0.690231 0.638974
vt 0.841113 0.638974
vt 0.690231 0.825940
vt 0.841113 0.825940
vt 0.690231 0.618200
vt 0.841113 0.618200
vt 0.848484 0.786454
vt 0.848484 0.618200
vt 0.931735 0.660109
vt 0.931735 0.744545
vt 0.853175 0.829651
vt 0.853175 0.997905
vt 0.769873 0.956048
vt 0.769873 0.871509
vn 0.000000 0.000000 1.000000
vn 0.000000 0.000000 1.000000
vn 0.000000 0.000000 1.000000
vn 0.000000 0.000000 1.000000
vn 0.000000 1.000000 0.000000
vn 0.000000 1.000000 0.000000
vn 0.000000 1.000000 0.000000
vn 0.000000 1.000000 0.000000
vn 0.000000 0.000000 -1.000000
vn 0.000000 0.000000 -1.000000
vn 0.000000 0.000000 -1.000000
vn 0.000000 0.000000 -1.000000
vn 0.000000 -1.000000 0.000000
vn 0.000000 -1.000000 0.000000
vn 0.000000 -1.000000 0.000000
vn 0.000000 -1.000000 0.000000
vn 1.000000 0.000000 0.000000
vn 1.000000 0.000000 0.000000
vn 1.000000 0.000000 0.000000
vn 1.000000 0.000000 0.000000
vn -1.000000 0.000000 0.000000
vn -1.000000 0.000000 0.000000
vn -1.000000 0.000000 0.000000
vn -1.000000 0.000000 0.000000
vn 0.000000 -1.000000 0.000000
vn 0.000000 -1.000000 0.000000
vn 0.000000 -1.000000 0.000000
vn 0.000000 -1.000000 0.000000
vn 1.000000 0.000000 0.000000
vn 1.000000 0.000000 0.000000
vn 1.000000 0.000000 0.000000
vn 1.000000 0.000000 0.000000
vn 0.000000 1.000000 -0.000000
vn 0.000000 1.000000 -0.000000
vn 0.000000 1.000000 0.000000
vn 0.000000 1.000000 0.000000
vn -1.000000 0.000000 0.000000
vn -1.000000 0.000000 0.000000
vn -1.000000 0.000000 0.000000
vn -1.000000 0.000000 0.000000
vn 0.000000 1.000000 0.000000
vn 0.000000 1.000000 0.000000
vn 0.000000 1.000000 0.000000
vn 0.000000 1.000000 0.000000
vn 1.000000 0.000000 0.000000
vn 1.000000 0.000000 0.000000
vn 0.000000 -1.000000 0.000000
vn 0.000000 -1.000000 0.000000
vn -1.000000 0.000000 0.000000
vn -1.000000 0.000000 0.000000
vn 0.000000 -1.000000 0.000000
vn 0.000000 -1.000000 0.000000
vn 0.000000 -1.000000 0.000000
vn 0.000000 -1.000000 0.000000
vn 0.000000 0.000000 1.000000
vn 0.000000 0.000000 1.000000
vn 0.000000 0.000000 1.000000
vn 0.000000 0.000000 1.000000
vn 0.000000 1.000000 -0.000000
vn 0.000000 1.000000 -0.000000
vn 0.000000 1.000000 -0.000001
vn 0.000000 1.000000 -0.000000
vn 0.000000 1.000000 0.000000
vn 0.000000 1.000000 0.000000
vn 0.000000 1.000000 0.000000
vn 0.000000 1.000000 0.000000
vn 0.000000 1.000000 0.000000
vn 0.000000 1.000000 0.000000
vn 0.000000 0.000000 -1.000000
vn 0.000000 0.000000 -1.000000
vn 0.000000 0.000000 -1.000000
vn 0.000000 0.000000 -1.000000
vn 0.000000 -1.000000 0.000000
vn 0.000000 -1.000000 0.000000
vn 0.000000 -1.000000 0.000000
vn 0.000000 -1.000000 0.000000
vn 0.000000 -1.000000 0.000000
vn 0.000000 -1.000000 0.000000
vn 0.000000 -1.000000 0.000000
vn 0.000000 -1.000000 0.000000
vn 0.000000 -1.000000 0.000000
vn 0.000000 -1.000000 0.000000
vn 0.000000 -1.000000 0.000000
vn 0.000000 -1.000000 0.000000
vn 0.000000 -1.000000 0.000000
vn 0.000000 -1.000000 0.000000
vn 0.000000 -1.000000 0.000000
vn 0.000000 -1.000000 0.000000
vn 0.000000 0.000000 -1.000000
vn 0.000000 0.000000 -1.000000
vn 0.000000 0.000000 -1.000000
vn 0.000000 0.000000 -1.000000
vn 0.000000 1.000000 0.000000
vn 0.000000 1.000000 -0.000000
vn 0.000000 1.000000 -0.000000
vn 0.000000 1.000000 0.000000
vn 0.000000 1.000000 0.000000
vn 0.000000 1.000000 0.000000
vn 0.000000 1.000000 -0.000000
vn 0.000000 1.000000 -0.000000
vn 0.000000 1.000000 -0.000001
vn 0.000000 1.000000 -0.000000
vn 0.000000 0.000000 1.000000
vn 0.000000 0.000000 1.000000
vn 0.000000 0.000000 1.000000
vn 0.000000 0.000000 1.000000
vn 1.000000 0.000000 0.000000
vn 1.000000 0.000000 0.000000
vn 1.000000 0.000000 0.000000
vn 1.000000 0.000000 0.000000
vn 0.000000 0.000000 -1.000000
vn 0.000000 0.000000 -1.000000
vn 0.000000 0.000000 -1.000000
vn 0.000000 0.000000 -1.000000
vn -1.000000 0.000000 0.000000
vn -1.000000 0.000000 0.000000
vn -1.000000 0.000000 0.000000
vn -1.000000 0.000000 0.000000
vn 0.000000 0.000000 1.000000
vn 0.000000 0.000000 1.000000
vn 0.000000 0.000000 1.000000
vn 0.000000 0.000000 1.000000
vn 0.000000 0.000000 1.000000
vn 0.000000 0.000000 1.000000
vn 0.000000 1.000000 0.000000
vn 0.000000 1.000000 0.000000
vn 0.000000 0.000000 -1.000000
vn 0.000000 0.000000 -1.000000
vn 0.000000 0.000000 -1.000000
vn 0.000000 0.000000 -1.000000
vn 0.000000 1.000000 0.000000
vn 0.000000 1.000000 0.000000
vn 0.000000 0.000000 1.000000
vn 0.000000 0.000000 1.000000
vn 0.000000 -1.000000 0.000000
vn 0.000000 -1.000000 0.000000
vn 0.000000 -1.000000 0.000000
vn 0.000000 -1.000000 0.000000
vn 0.000000 -1.000000 0.000000
vn 0.000000 -1.000000 0.000000
vn 1.000000 0.000000 0.000000
vn 1.000000 0.000000 0.000000
vn 0.000000 1.000000 0.000000
vn 0.000000 1.000000 0.000000
vn 1.000000 0.000000 0.000000
vn 1.000000 0.000000 0.000000
vn 0.000000 1.000000 0.000000
vn 0.000000 1.000000 0.000000
vn 0.000000 1.000000 0.000000
vn 0.000000 1.000000 0.000000
vn 0.000000 1.000000 0.000000
vn 0.000000 1.000000 0.000000
vn 0.000000 1.000000 0.000000
vn 0.000000 1.000000 0.000000
vn -1.000000 0.000000 0.000000
vn -1.000000 0.000000 0.000000
vn 0.000000 1.000000 0.000000
vn 0.000000 1.000000 0.000000
vn -1.000000 0.000000 0.000000
vn -1.000000 0.000000 0.000000
vn 1.000000 0.000000 0.000000
vn 1.000000 0.000000 0.000000
vn 0.000000 1.000000 0.000000
vn 0.000000 1.000000 0.000000
vn 0.000000 1.000000 0.000000
vn 0.000000 1.000000 0.000000
vn -1.000000 0.000000 0.000000
vn -1.000000 0.000000 0.000000
vn 0.000000 0.167952 0.985795
vn 0.000000 0.167952 0.985795
vn 0.000000 0.167952 0.985795
vn 0.000000 0.167952 0.985795
vn 0.985795 0.167952 0.000000
vn 0.985795 0.167952 0.000000
vn 0.985795 0.167952 0.000000
vn 0.985795 0.167952 0.000000
vn 0.000000 0.167952 -0.985795
vn 0.000000 0.167952 -0.985795
vn 0.000000 0.167952 -0.985795
vn 0.000000 0.167952 -0.985795
vn -0.985795 0.167952 0.000000
vn -0.985795 0.167952 0.000000
vn -0.985795 0.167952 0.000000
vn -0.985795 0.167952 0.000000
s 1
g Building1
usemtl initialShadingGroup
f 38/137/1 39/138/2 56/139/3 47/140/4
s 2
f 41/49/5 66/50/6 67/51/7 54/52/8
s 3
f 44/149/9 45/150/10 50/151/11 51/152/12
s 4
f 48/65/13 59/66/14 60/67/15 37/68/16
s 5
f 15/1/17 62/2/18 63/3/19 14/4/20
s 6
f 70/13/21 57/14/22 16/15/23 13/16/24
s 4
f 45/90/25 46/82/26 49/81/27 50/91/28
s 5
f 11/10/29 10/9/30 8/11/31 6/12/32
s 9
f 51/101/33 52/102/34 43/103/35 44/104/36
s 6
f 7/23/37 9/22/38 12/21/39 5/24/40
s 9
f 39/132/41 40/131/42 55/130/43 56/129/44
s 5
f 2/7/45 15/1/17 14/4/20 4/8/46
s 4
f 47/75/47 48/65/13 37/68/16 38/76/48
s 6
f 13/16/24 16/15/23 1/19/49 3/20/50
s 4
f 18/86/51 17/74/52 15/85/53 2/94/54
s 1
f 19/142/55 18/141/56 2/145/57 4/146/58
s 9
f 20/123/59 19/127/60 4/128/61 14/124/62
f 63/120/63 64/119/64 20/123/59 14/124/62
f 22/108/65 21/107/66 11/111/67 6/112/68
s 3
f 23/154/69 22/153/70 6/157/71 8/158/72
s 4
f 24/92/73 23/97/74 8/100/75 10/98/76
f 17/74/52 61/73/77 62/84/78 15/85/53
f 16/77/79 26/69/80 25/80/81 1/88/82
f 16/77/79 57/78/83 58/70/84 26/69/80
f 7/99/85 28/96/86 27/89/87 9/95/88
s 3
f 5/159/89 29/156/90 28/155/91 7/160/92
s 9
f 12/109/93 30/105/94 29/106/95 5/110/96
f 69/118/97 70/117/98 13/121/99 31/122/100
f 3/125/101 32/126/102 31/122/100 13/121/99
s 1
f 1/147/103 25/144/104 32/143/105 3/148/106
s 15
f 20/25/107 64/26/108 65/27/109 33/28/110
s 16
f 42/161/111 43/162/112 52/163/113 53/164/114
s 17
f 68/33/115 69/34/116 31/35/117 36/36/118
s 18
f 54/169/119 55/170/120 40/171/121 41/172/122
s 4
f 38/76/48 37/68/16 17/74/52 18/86/51
s 1
f 18/141/56 19/142/55 39/138/2 38/137/1
s 9
f 19/127/60 20/123/59 40/131/42 39/132/41
s 18
f 41/172/122 40/171/121 20/175/123 33/176/124
s 2
f 33/53/125 65/54/126 66/50/6 41/49/5
s 16
f 21/165/127 43/162/112 42/161/111 34/166/128
s 9
f 44/104/36 43/103/35 21/107/66 22/108/65
s 3
f 22/153/70 23/154/69 45/150/10 44/149/9
s 4
f 23/97/74 24/92/73 46/82/26 45/90/25
f 37/68/16 60/67/15 61/73/77 17/74/52
f 26/69/80 48/65/13 47/75/47 25/80/81
f 26/69/80 58/70/84 59/66/14 48/65/13
f 50/91/28 49/81/27 27/89/87 28/96/86
s 3
f 51/152/12 50/151/11 28/155/91 29/156/90
s 9
f 30/105/94 52/102/34 51/101/33 29/106/95
s 16
f 53/164/114 52/163/113 30/167/129 35/168/130
s 2
f 54/52/8 67/51/7 68/55/131 36/56/132
s 18
f 31/173/133 55/170/120 54/169/119 36/174/134
s 9
f 56/129/44 55/130/43 31/122/100 32/126/102
s 1
f 47/140/4 56/139/3 32/143/105 25/144/104
s 4
f 58/70/84 57/78/83 71/87/135 72/79/136
f 59/66/14 58/70/84 72/79/136 73/71/137
f 60/67/15 59/66/14 73/71/137 74/72/138
f 61/73/77 60/67/15 74/72/138 75/83/139
f 62/84/78 61/73/77 75/83/139 76/93/140
s 5
f 63/3/19 62/2/18 76/5/141 77/6/142
s 9
f 77/116/143 78/115/144 64/119/64 63/120/63
s 15
f 65/27/109 64/26/108 78/29/145 79/30/146
s 2
f 66/50/6 65/54/126 79/57/147 80/58/148
s off
f 86/133/149 85/134/150 87/135/151 88/136/152
s 2
f 68/55/131 67/51/7 81/59/153 82/60/154
s 17
f 82/37/155 83/38/156 69/34/116 68/33/115
s 9
f 83/114/157 84/113/158 70/117/98 69/118/97
s 6
f 84/17/159 71/18/160 57/14/22 70/13/21
s 4
f 72/79/136 71/87/135 9/95/88 27/89/87
f 73/71/137 72/79/136 27/89/87 49/81/27
f 74/72/138 73/71/137 49/81/27 46/82/26
f 75/83/139 74/72/138 46/82/26 24/92/73
f 76/93/140 75/83/139 24/92/73 10/98/76
s 5
f 77/6/142 76/5/141 10/9/30 11/10/29
s 9
f 11/111/67 21/107/66 78/115/144 77/116/143
s 15
f 79/30/146 78/29/145 21/31/161 34/32/162
s 2
f 80/58/148 79/57/147 34/61/163 42/62/164
f 81/59/153 80/58/148 42/62/164 53/63/165
f 82/60/154 81/59/153 53/63/165 35/64/166
s 17
f 30/39/167 83/38/156 82/37/155 35/40/168
s 9
f 30/105/94 12/109/93 84/113/158 83/114/157
s 6
f 12/21/39 9/22/38 71/18/160 84/17/159
s off
f 67/177/169 66/178/170 85/179/171 86/180/172
f 66/41/173 80/42/174 87/43/175 85/44/176
f 80/181/177 81/182/178 88/183/179 87/184/180
f 81/45/181 67/46/182 86/47/183 88/48/184
