# This file uses centimeters as units for non-parametric coordinates.

mtllib Diamond.mtl
g default
v -6.063161 31.621183 7.783895
v 5.574784 31.785421 6.270370
v -1.274953 57.791458 1.329036
v -7.959128 31.035738 -4.183284
v -1.265213 1.609289 1.330452
v 3.662484 31.410580 -5.532442
vt 0.425485 0.523674
vt 0.523235 0.001992
vt 0.637643 0.534053
vt 0.523210 0.998008
vt 0.732008 0.998008
vt 0.644406 0.536964
vt 0.853650 0.530319
vt 0.731983 0.001992
vt 0.001704 0.534053
vt 0.208025 0.536964
vt 0.086591 0.998008
vt 0.086764 0.001992
vt 0.332183 0.001992
vt 0.419715 0.469681
vt 0.213684 0.476326
vt 0.332356 0.998008
vn 0.122905 0.216401 0.968538
vn 0.122905 0.216401 0.968537
vn 0.122905 0.216401 0.968537
vn -0.119536 0.228899 -0.966083
vn -0.119536 0.228899 -0.966083
vn -0.119536 0.228899 -0.966083
vn -0.968256 -0.189775 0.162685
vn -0.968256 -0.189775 0.162685
vn -0.968256 -0.189775 0.162685
vn 0.129267 -0.188665 0.973497
vn 0.129267 -0.188665 0.973497
vn 0.129267 -0.188665 0.973497
vn -0.106260 -0.206426 -0.972675
vn -0.106260 -0.206426 -0.972675
vn -0.106260 -0.206426 -0.972675
vn -0.966760 0.212101 0.142788
vn -0.966760 0.212101 0.142788
vn -0.966760 0.212101 0.142788
vn 0.961298 0.222262 -0.162809
vn 0.961298 0.222262 -0.162809
vn 0.961298 0.222262 -0.162809
vn 0.969140 -0.194983 -0.150828
vn 0.969140 -0.194983 -0.150828
vn 0.969140 -0.194983 -0.150828
s off
g Diamond
usemtl initialShadingGroup
f 1/9/1 2/10/2 3/11/3
f 3/13/4 6/14/5 4/15/6
f 4/1/7 5/2/8 1/3/9
f 1/9/10 5/12/11 2/10/12
f 6/14/13 5/16/14 4/15/15
f 4/1/16 1/3/17 3/4/18
f 3/5/19 2/6/20 6/7/21
f 2/6/22 5/8/23 6/7/24
g default
v -6.063161 31.621183 7.783895
v 5.574784 31.785421 6.270370
v -1.274953 57.791458 1.329036
v -7.959128 31.035738 -4.183284
v -1.265213 1.609289 1.330452
v 3.662484 31.410580 -5.532442
vt 0.425485 0.523674
vt 0.523235 0.001992
vt 0.637643 0.534053
vt 0.523210 0.998008
vt 0.732008 0.998008
vt 0.644406 0.536964
vt 0.853650 0.530319
vt 0.731983 0.001992
vt 0.001704 0.534053
vt 0.208025 0.536964
vt 0.086591 0.998008
vt 0.086764 0.001992
vt 0.332183 0.001992
vt 0.419715 0.469681
vt 0.213684 0.476326
vt 0.332356 0.998008
vn 0.122905 0.216401 0.968538
vn 0.122905 0.216401 0.968537
vn 0.122905 0.216401 0.968537
vn -0.119536 0.228899 -0.966083
vn -0.119536 0.228899 -0.966083
vn -0.119536 0.228899 -0.966083
vn -0.968256 -0.189775 0.162685
vn -0.968256 -0.189775 0.162685
vn -0.968256 -0.189775 0.162685
vn 0.129267 -0.188665 0.973497
vn 0.129267 -0.188665 0.973497
vn 0.129267 -0.188665 0.973497
vn -0.106260 -0.206426 -0.972675
vn -0.106260 -0.206426 -0.972675
vn -0.106260 -0.206426 -0.972675
vn -0.966760 0.212101 0.142788
vn -0.966760 0.212101 0.142788
vn -0.966760 0.212101 0.142788
vn 0.961298 0.222262 -0.162809
vn 0.961298 0.222262 -0.162809
vn 0.961298 0.222262 -0.162809
vn 0.969140 -0.194983 -0.150828
vn 0.969140 -0.194983 -0.150828
vn 0.969140 -0.194983 -0.150828
s off
g Diamond
f 7/25/25 8/26/26 9/27/27
f 9/29/28 12/30/29 10/31/30
f 10/17/31 11/18/32 7/19/33
f 7/25/34 11/28/35 8/26/36
f 12/30/37 11/32/38 10/31/39
f 10/17/40 7/19/41 9/20/42
f 9/21/43 8/22/44 12/23/45
f 8/22/46 11/24/47 12/23/48
