# This file uses centimeters as units for non-parametric coordinates.

mtllib LWall.mtl
g default
v -26.974089 -0.072117 1.494122
v 26.974089 -0.072117 1.494122
v -26.974089 47.177250 1.494122
v 26.974089 47.177250 1.494122
v -26.974089 47.177250 -1.015545
v 26.974089 47.177250 -1.015545
v -26.974089 -0.072117 -1.015545
v 26.974089 -0.072117 -1.015545
v 24.313540 -0.072117 1.494122
v 24.313540 -0.072117 -1.015545
v 24.313540 47.177250 -1.015545
v 24.313540 47.177250 1.494122
v 24.313540 -0.072117 -36.222752
v 24.313540 47.177250 -36.222752
v 26.974089 47.177250 -36.222752
v 26.974089 -0.072117 -36.222752
vt 0.327732 0.410686
vt 0.346578 0.410686
vt 0.346578 0.765490
vt 0.327732 0.765490
vt 0.610955 0.410686
vt 0.610955 0.765490
vt 0.302751 0.410686
vt 0.321597 0.410686
vt 0.321597 0.765490
vt 0.302751 0.765490
vt 0.296616 0.410686
vt 0.296616 0.765490
vt 0.032239 0.765490
vt 0.032239 0.410686
vt 0.383538 0.021567
vt 0.364692 0.021567
vt 0.364692 0.001588
vt 0.383538 0.001588
vt 0.364692 0.406695
vt 0.383538 0.406695
vt 0.647915 0.001588
vt 0.647915 0.021567
vt 0.938309 0.021567
vt 0.919463 0.021567
vt 0.919463 0.001588
vt 0.938309 0.001588
vt 0.919463 0.406695
vt 0.938309 0.406695
vt 0.655086 0.021567
vt 0.655086 0.001588
vt 0.356796 0.021567
vt 0.001992 0.021567
vt 0.001992 0.001588
vt 0.356796 0.001588
vt 0.001992 0.406695
vt 0.356796 0.406695
vt 0.617090 0.765490
vt 0.617090 0.410686
vt 0.637069 0.410686
vt 0.637069 0.765490
vt 0.643204 0.795814
vt 0.643204 0.410686
vt 0.998008 0.410686
vt 0.998008 0.795814
vn 0.000000 0.000000 1.000000
vn 0.000000 0.000000 1.000000
vn 0.000000 0.000000 1.000000
vn 0.000000 0.000000 1.000000
vn 0.000000 1.000000 0.000000
vn 0.000000 1.000000 0.000000
vn 0.000000 1.000000 0.000000
vn 0.000000 1.000000 0.000000
vn 0.000000 0.000000 -1.000000
vn 0.000000 0.000000 -1.000000
vn 0.000000 0.000000 -1.000000
vn 0.000000 0.000000 -1.000000
vn 0.000000 -1.000000 0.000000
vn 0.000000 -1.000000 0.000000
vn 0.000000 -1.000000 0.000000
vn 0.000000 -1.000000 0.000000
vn 1.000000 0.000000 0.000000
vn 1.000000 0.000000 0.000000
vn 1.000000 0.000000 0.000000
vn 1.000000 0.000000 0.000000
vn -1.000000 0.000000 0.000000
vn -1.000000 0.000000 0.000000
vn -1.000000 0.000000 0.000000
vn -1.000000 0.000000 0.000000
vn 0.000000 -1.000000 0.000000
vn 0.000000 -1.000000 0.000000
vn 0.000000 0.000000 -1.000000
vn 0.000000 0.000000 -1.000000
vn 0.000000 0.000000 -1.000000
vn 0.000000 0.000000 -1.000000
vn 0.000000 1.000000 0.000000
vn 0.000000 1.000000 0.000000
vn 0.000000 0.000000 1.000000
vn 0.000000 0.000000 1.000000
vn -1.000000 0.000000 0.000000
vn -1.000000 0.000000 0.000000
vn -1.000000 0.000000 0.000000
vn -1.000000 0.000000 0.000000
vn 0.000000 1.000000 0.000000
vn 0.000000 1.000000 0.000000
vn 1.000000 0.000000 0.000000
vn 1.000000 0.000000 0.000000
vn 0.000000 -1.000000 0.000000
vn 0.000000 -1.000000 0.000000
s 1
g LWall
usemtl initialShadingGroup
f 12/31/1 9/32/2 2/33/3 4/34/4
s 2
f 11/15/5 12/16/6 4/17/7 6/18/8
s off
f 13/37/9 14/38/10 15/39/11 16/40/12
s 3
f 9/23/13 10/24/14 8/25/15 2/26/16
s 4
f 2/1/17 8/2/18 6/3/19 4/4/20
s off
f 7/7/21 1/8/22 3/9/23 5/10/24
s 3
f 7/27/25 10/24/14 9/23/13 1/28/26
s off
f 5/41/27 11/42/28 10/43/29 7/44/30
s 2
f 3/19/31 12/16/6 11/15/5 5/20/32
s 1
f 1/35/33 9/32/2 12/31/1 3/36/34
s off
f 10/11/35 11/12/36 14/13/37 13/14/38
s 2
f 11/15/5 6/18/8 15/21/39 14/22/40
s 4
f 6/3/19 8/2/18 16/5/41 15/6/42
s 3
f 8/25/15 10/24/14 13/29/43 16/30/44
